<?xml version="1.0" encoding="UTF-8"?>
<!DOCTYPE svg PUBLIC "-//W3C//DTD SVG 1.1//EN" "http://www.w3.org/Graphics/SVG/1.1/DTD/svg11.dtd">
<!-- Creator: CorelDRAW 2018 (64-Bit) -->
<svg xmlns="http://www.w3.org/2000/svg" xml:space="preserve" width="682px" height="682px" version="1.1" style="shape-rendering:geometricPrecision; text-rendering:geometricPrecision; image-rendering:optimizeQuality; fill-rule:evenodd; clip-rule:evenodd"
viewBox="0 0 1326.4 1325.2"
 xmlns:xlink="http://www.w3.org/1999/xlink">
 <defs>
  <style type="text/css">
   <![CDATA[
    .fil0 {fill:blue}
    .fil1 {fill:#F0F0F0}
   ]]>
  </style>
 </defs>
 <g id="Слой_x0020_1">
  <metadata id="CorelCorpID_0Corel-Layer"/>
  <rect class="fil0" width="1326.4" height="1325.2"/>
  <rect class="fil1" x="102.45" y="102.36" width="353.09" height="267.37"/>
  <rect class="fil1" x="871.38" y="871.8" width="265.33" height="351.04"/>
  <polygon class="fil1" points="665.24,871.8 841.79,1222.85 488.7,1222.85 "/>
  <polygon class="fil1" points="871.89,102.36 1023.94,325.84 1224.98,102.36 1224.98,453.4 871.89,453.4 "/>
  <polygon class="fil1" points="487.17,102.36 840.26,102.36 487.17,453.4 "/>
  <rect class="fil1" x="702.49" y="395.23" width="137.76" height="58.17"/>
  <rect class="fil1" x="702.49" y="287.06" width="137.76" height="58.17"/>
  <rect class="fil1" x="212.66" y="396.25" width="132.66" height="57.15"/>
  <rect class="fil1" x="102.45" y="782" width="132.66" height="57.15"/>
  <rect class="fil1" transform="matrix(4.17862E-15 -0.142612 0.0897555 2.14867E-15 1166.81 1222.85)" width="840.83" height="636.7"/>
  <ellipse class="fil1" cx="979.56" cy="663.11" rx="245.42" ry="176.03"/>
  <path class="fil1" d="M543.62 487.08c87.53,0 158.48,59.63 158.48,133.17 0,73.55 -70.95,133.18 -158.48,133.18l-441.17 0 0 -266.35 441.17 0z"/>
  <path class="fil1" d="M337.81 871.8c65.58,0 118.75,44.55 118.75,99.49 0,54.95 -53.17,99.49 -118.75,99.49l-105.21 0 222.93 152.07 -353.08 0 0 -152.07 0 -88.77 0 -110.21 235.36 0z"/>
 </g>
</svg>
