<?xml version="1.0" encoding="UTF-8"?>
<svg width="1673px" height="1671px" viewBox="0 0 1673 1671" version="1.1" xmlns="http://www.w3.org/2000/svg" xmlns:xlink="http://www.w3.org/1999/xlink">
    <!-- Generator: Sketch 61.2 (89653) - https://sketch.com -->
    <title>logo_main_1</title>
    <desc>Created with Sketch.</desc>
    <g id="Page-1" stroke="none" stroke-width="1" fill="none" fill-rule="evenodd">
        <g id="logo_main_1">
            <rect id="Rectangle" fill="#AB24FB" x="0" y="0" width="1672.33" height="1670.81"></rect>
            <rect id="Rectangle" fill="#3DF0F7" x="46.01" y="45.97" width="497.53" height="376.74"></rect>
            <polygon id="Path" fill="#FFFE56" points="201.31 460.1 388.24 460.1 543.54 422.71 46.01 422.71"></polygon>
            <rect id="Rectangle" fill="#3DF0F7" x="1129.5" y="1130.19" width="373.87" height="494.65"></rect>
            <polygon id="Path" fill="#FFFE56" points="1545.79 1455.88 1503.37 1130.19 1503.37 1624.84 1545.79 1624.84"></polygon>
            <polygon id="Path" fill="#3DF0F7" points="839.04 1130.19 1087.81 1624.84 590.28 1624.84"></polygon>
            <polygon id="Path" fill="#3DF0F7" points="1130.23 45.97 1344.48 360.88 1627.76 45.97 1627.76 540.62 1130.23 540.62"></polygon>
            <polygon id="Path" fill="#3DF0F7" points="588.12 45.97 1085.65 45.97 588.12 540.62"></polygon>
            <polygon id="Path" fill="#FFFE56" points="891.53 540.62 891.53 458.66 1085.65 45.97 588.12 540.62"></polygon>
            <rect id="Rectangle" fill="#3DF0F7" x="891.53" y="458.66" width="194.12" height="81.96"></rect>
            <rect id="Rectangle" fill="#3DF0F7" x="891.53" y="306.24" width="194.12" height="81.96"></rect>
            <rect id="Rectangle" fill="#3DF0F7" x="201.31" y="460.1" width="186.94" height="80.53"></rect>
            <rect id="Rectangle" fill="#3DF0F7" x="46.01" y="1003.65" width="186.94" height="80.53"></rect>
            <rect id="Rectangle" fill="#3DF0F7" transform="translate(1586.052581, 1540.356172) rotate(-90.000000) translate(-1586.052581, -1540.356172) " x="1501.56875" y="1500.09359" width="168.967656" height="80.5251611"></rect>
            <ellipse id="Oval" fill="#3DF0F7" cx="1281.94" cy="836.13" rx="345.82" ry="248.05"></ellipse>
            <path d="M667.66,588.08 C790.99,588.08 890.98,672.1 890.98,775.73 C890.98,879.37 790.99,963.39 667.66,963.39 L46.01,963.39 L46.01,588.08 L667.66,588.08 L667.66,588.08 Z" id="Path" fill="#3DF0F7"></path>
            <path d="M377.66,1130.19 C470.07,1130.19 544.98,1192.96 544.98,1270.38 C544.98,1347.81 470.07,1410.58 377.66,1410.58 L229.4,1410.58 L543.54,1624.84 L46.01,1624.84 L46.01,1410.58 L46.01,1285.49 L46.01,1130.19 L377.66,1130.19 L377.66,1130.19 Z" id="Path" fill="#3DF0F7"></path>
            <polygon id="Path" fill="#FFFE56" points="232.94 1003.65 46.01 1003.65 46.01 963.39 667.66 963.39"></polygon>
        </g>
    </g>
</svg>